<svg width="100" height="72" viewBox="0 0 100 72" fill="none" xmlns="http://www.w3.org/2000/svg">
<ellipse cx="3.42578" cy="2.92889" rx="2.5" ry="2.62469" fill="#377DFF"/>
<ellipse cx="3.42578" cy="46.7133" rx="2.5" ry="2.62469" fill="#377DFF"/>
<ellipse cx="40.8164" cy="2.92889" rx="2.5" ry="2.62469" fill="#377DFF"/>
<ellipse cx="40.8164" cy="46.7133" rx="2.5" ry="2.62469" fill="#377DFF"/>
<ellipse cx="78.207" cy="2.92889" rx="2.5" ry="2.62469" fill="#377DFF"/>
<ellipse cx="78.207" cy="46.7133" rx="2.5" ry="2.62469" fill="#377DFF"/>
<ellipse cx="3.42578" cy="24.821" rx="2.5" ry="2.62469" fill="#377DFF"/>
<ellipse cx="3.42578" cy="68.6052" rx="2.5" ry="2.62469" fill="#377DFF"/>
<ellipse cx="40.8164" cy="24.821" rx="2.5" ry="2.62469" fill="#377DFF"/>
<ellipse cx="40.8164" cy="68.6052" rx="2.5" ry="2.62469" fill="#377DFF"/>
<ellipse cx="78.207" cy="24.821" rx="2.5" ry="2.62469" fill="#377DFF"/>
<ellipse cx="78.207" cy="68.6052" rx="2.5" ry="2.62469" fill="#377DFF"/>
<ellipse cx="22.1211" cy="2.92889" rx="2.5" ry="2.62469" fill="#377DFF"/>
<ellipse cx="22.1211" cy="46.7133" rx="2.5" ry="2.62469" fill="#377DFF"/>
<ellipse cx="59.5117" cy="2.92889" rx="2.5" ry="2.62469" fill="#377DFF"/>
<ellipse cx="59.5117" cy="46.7133" rx="2.5" ry="2.62469" fill="#377DFF"/>
<ellipse cx="96.9023" cy="2.92889" rx="2.5" ry="2.62469" fill="#377DFF"/>
<ellipse cx="96.9023" cy="46.7133" rx="2.5" ry="2.62469" fill="#377DFF"/>
<ellipse cx="22.1211" cy="24.821" rx="2.5" ry="2.62469" fill="#377DFF"/>
<ellipse cx="22.1211" cy="68.6052" rx="2.5" ry="2.62469" fill="#377DFF"/>
<ellipse cx="59.5117" cy="24.821" rx="2.5" ry="2.62469" fill="#377DFF"/>
<ellipse cx="59.5117" cy="68.6052" rx="2.5" ry="2.62469" fill="#377DFF"/>
<ellipse cx="96.9023" cy="24.821" rx="2.5" ry="2.62469" fill="#377DFF"/>
<ellipse cx="96.9023" cy="68.6052" rx="2.5" ry="2.62469" fill="#377DFF"/>
</svg>
