<svg width="100" height="73" viewBox="0 0 100 73" fill="none" xmlns="http://www.w3.org/2000/svg">
<ellipse cx="2.53392" cy="4.10246" rx="2.5" ry="2.62469" transform="rotate(-0.745038 2.53392 4.10246)" fill="#EB00FF"/>
<ellipse cx="3.10423" cy="47.8832" rx="2.5" ry="2.62469" transform="rotate(-0.745038 3.10423 47.8832)" fill="#EB00FF"/>
<ellipse cx="39.9209" cy="3.61638" rx="2.5" ry="2.62469" transform="rotate(-0.745038 39.9209 3.61638)" fill="#EB00FF"/>
<ellipse cx="40.4909" cy="47.3969" rx="2.5" ry="2.62469" transform="rotate(-0.745038 40.4909 47.3969)" fill="#EB00FF"/>
<ellipse cx="77.3074" cy="3.13005" rx="2.5" ry="2.62469" transform="rotate(-0.745038 77.3074 3.13005)" fill="#EB00FF"/>
<ellipse cx="77.8777" cy="46.9108" rx="2.5" ry="2.62469" transform="rotate(-0.745038 77.8777 46.9108)" fill="#EB00FF"/>
<ellipse cx="2.81907" cy="25.9926" rx="2.5" ry="2.62469" transform="rotate(-0.745038 2.81907 25.9926)" fill="#EB00FF"/>
<ellipse cx="3.38939" cy="69.7732" rx="2.5" ry="2.62469" transform="rotate(-0.745038 3.38939 69.7732)" fill="#EB00FF"/>
<ellipse cx="40.2058" cy="25.5065" rx="2.5" ry="2.62469" transform="rotate(-0.745038 40.2058 25.5065)" fill="#EB00FF"/>
<ellipse cx="40.7761" cy="69.287" rx="2.5" ry="2.62469" transform="rotate(-0.745038 40.7761 69.287)" fill="#EB00FF"/>
<ellipse cx="77.5923" cy="25.0204" rx="2.5" ry="2.62469" transform="rotate(-0.745038 77.5923 25.0204)" fill="#EB00FF"/>
<ellipse cx="78.1628" cy="68.8008" rx="2.5" ry="2.62469" transform="rotate(-0.745038 78.1628 68.8008)" fill="#EB00FF"/>
<ellipse cx="21.2292" cy="3.8593" rx="2.5" ry="2.62469" transform="rotate(-0.745038 21.2292 3.8593)" fill="#EB00FF"/>
<ellipse cx="21.7956" cy="47.6401" rx="2.5" ry="2.62469" transform="rotate(-0.745038 21.7956 47.6401)" fill="#EB00FF"/>
<ellipse cx="58.6159" cy="3.37321" rx="2.5" ry="2.62469" transform="rotate(-0.745038 58.6159 3.37321)" fill="#EB00FF"/>
<ellipse cx="59.1824" cy="47.154" rx="2.5" ry="2.62469" transform="rotate(-0.745038 59.1824 47.154)" fill="#EB00FF"/>
<ellipse cx="96.0027" cy="2.88688" rx="2.5" ry="2.62469" transform="rotate(-0.745038 96.0027 2.88688)" fill="#EB00FF"/>
<ellipse cx="96.5691" cy="46.6676" rx="2.5" ry="2.62469" transform="rotate(-0.745038 96.5691 46.6676)" fill="#EB00FF"/>
<ellipse cx="21.5105" cy="25.7497" rx="2.5" ry="2.62469" transform="rotate(-0.745038 21.5105 25.7497)" fill="#EB00FF"/>
<ellipse cx="22.0808" cy="69.5301" rx="2.5" ry="2.62469" transform="rotate(-0.745038 22.0808 69.5301)" fill="#EB00FF"/>
<ellipse cx="58.8972" cy="25.2633" rx="2.5" ry="2.62469" transform="rotate(-0.745038 58.8972 25.2633)" fill="#EB00FF"/>
<ellipse cx="59.4675" cy="69.0439" rx="2.5" ry="2.62469" transform="rotate(-0.745038 59.4675 69.0439)" fill="#EB00FF"/>
<ellipse cx="96.2839" cy="24.7773" rx="2.5" ry="2.62469" transform="rotate(-0.745038 96.2839 24.7773)" fill="#EB00FF"/>
<ellipse cx="96.8542" cy="68.5578" rx="2.5" ry="2.62469" transform="rotate(-0.745038 96.8542 68.5578)" fill="#EB00FF"/>
</svg>
