<svg width="99" height="71" viewBox="0 0 99 71" fill="none" xmlns="http://www.w3.org/2000/svg">
<ellipse cx="2.5" cy="2.62469" rx="2.5" ry="2.62469" fill="#FF5C00"/>
<ellipse cx="2.5" cy="46.4091" rx="2.5" ry="2.62469" fill="#FF5C00"/>
<ellipse cx="39.8906" cy="2.62469" rx="2.5" ry="2.62469" fill="#FF5C00"/>
<ellipse cx="39.8906" cy="46.4091" rx="2.5" ry="2.62469" fill="#FF5C00"/>
<ellipse cx="77.2812" cy="2.62469" rx="2.5" ry="2.62469" fill="#FF5C00"/>
<ellipse cx="77.2812" cy="46.4091" rx="2.5" ry="2.62469" fill="#FF5C00"/>
<ellipse cx="2.5" cy="24.5168" rx="2.5" ry="2.62469" fill="#FF5C00"/>
<ellipse cx="2.5" cy="68.301" rx="2.5" ry="2.62469" fill="#FF5C00"/>
<ellipse cx="39.8906" cy="24.5168" rx="2.5" ry="2.62469" fill="#FF5C00"/>
<ellipse cx="39.8906" cy="68.301" rx="2.5" ry="2.62469" fill="#FF5C00"/>
<ellipse cx="77.2812" cy="24.5168" rx="2.5" ry="2.62469" fill="#FF5C00"/>
<ellipse cx="77.2812" cy="68.301" rx="2.5" ry="2.62469" fill="#FF5C00"/>
<ellipse cx="21.1953" cy="2.62469" rx="2.5" ry="2.62469" fill="#FF5C00"/>
<ellipse cx="21.1953" cy="46.4091" rx="2.5" ry="2.62469" fill="#FF5C00"/>
<ellipse cx="58.5859" cy="2.62469" rx="2.5" ry="2.62469" fill="#FF5C00"/>
<ellipse cx="58.5859" cy="46.4091" rx="2.5" ry="2.62469" fill="#FF5C00"/>
<ellipse cx="95.9766" cy="2.62469" rx="2.5" ry="2.62469" fill="#FF5C00"/>
<ellipse cx="95.9766" cy="46.4091" rx="2.5" ry="2.62469" fill="#FF5C00"/>
<ellipse cx="21.1953" cy="24.5168" rx="2.5" ry="2.62469" fill="#FF5C00"/>
<ellipse cx="21.1953" cy="68.301" rx="2.5" ry="2.62469" fill="#FF5C00"/>
<ellipse cx="58.5859" cy="24.5168" rx="2.5" ry="2.62469" fill="#FF5C00"/>
<ellipse cx="58.5859" cy="68.301" rx="2.5" ry="2.62469" fill="#FF5C00"/>
<ellipse cx="95.9766" cy="24.5168" rx="2.5" ry="2.62469" fill="#FF5C00"/>
<ellipse cx="95.9766" cy="68.301" rx="2.5" ry="2.62469" fill="#FF5C00"/>
</svg>
