<svg width="91" height="33" viewBox="0 0 91 33" fill="none" xmlns="http://www.w3.org/2000/svg">
<path d="M19.9974 2.62896L27.3741 15.3766C27.7764 16.0719 27.7764 16.9285 27.3741 17.6238L19.9974 30.3714C19.5951 31.0667 18.8516 31.495 18.0469 31.495H22.3698C23.1745 31.495 23.918 31.0667 24.3203 30.3714L31.697 17.6238C32.0993 16.9285 32.0993 16.0719 31.697 15.3766L24.3203 2.62896C23.918 1.93366 23.1744 1.50537 22.3698 1.50537H18.0469C18.8516 1.50537 19.5951 1.93366 19.9974 2.62896Z" fill="#39435A"/>
<path d="M19.9974 2.62896L20.3261 3.19697C20.8848 3.20512 21.465 3.25091 22.0572 3.33777C23.2357 3.51074 24.3221 3.826 25.2503 4.23638L24.3201 2.62896C23.918 1.93366 23.1745 1.50537 22.3698 1.50537H18.0469C18.8516 1.50537 19.5951 1.93366 19.9974 2.62896Z" fill="#2C374C"/>
<path d="M11.6771 2.62896L19.0538 15.3766C19.4561 16.0719 19.4561 16.9285 19.0538 17.6238L11.6771 30.3714C11.2748 31.0667 10.5313 31.495 9.72656 31.495H14.0495C14.8542 31.495 15.5977 31.0667 16 30.3714L23.3767 17.6238C23.779 16.9285 23.779 16.0719 23.3767 15.3766L16 2.62896C15.5976 1.93366 14.8541 1.50537 14.0494 1.50537H9.72656C10.5312 1.50537 11.2747 1.93366 11.6771 2.62896Z" fill="#39435A"/>
<path d="M12.0014 30.3712L4.62463 17.6235C4.22234 16.9282 4.22234 16.0717 4.62463 15.3764L12.0014 2.62871C12.4036 1.93342 13.1472 1.50513 13.9519 1.50513H9.62897C8.82427 1.50513 8.08073 1.93342 7.67844 2.62871L0.30172 15.3764C-0.100573 16.0717 -0.100573 16.9282 0.30172 17.6235L7.67844 30.3712C8.08073 31.0665 8.82427 31.4948 9.62897 31.4948H13.9519C13.1472 31.4948 12.4036 31.0665 12.0014 30.3712Z" fill="#435F94"/>
<path d="M16.2633 30.3712L8.8866 17.6236C8.4843 16.9283 8.4843 16.0717 8.8866 15.3764L16.2633 2.62874C16.6656 1.93366 17.4091 1.50537 18.2138 1.50537H13.8909C13.0862 1.50537 12.3427 1.93366 11.9404 2.62896L4.56368 15.3766C4.16139 16.0719 4.16139 16.9285 4.56368 17.6238L11.9404 30.3714C12.3427 31.0667 13.0862 31.495 13.8909 31.495H18.2138C17.4091 31.4948 16.6656 31.0665 16.2633 30.3712Z" fill="#377DFF"/>
<path d="M20.6068 30.3712L13.2301 17.6236C12.8278 16.9283 12.8278 16.0717 13.2301 15.3764L20.6068 2.62874C21.0091 1.93366 21.7527 1.50537 22.5574 1.50537H18.2344C17.4297 1.50537 16.6862 1.93366 16.2839 2.62896L8.90719 15.3766C8.5049 16.0719 8.5049 16.9285 8.90719 17.6238L16.2839 30.3714C16.6862 31.0667 17.4297 31.495 18.2344 31.495H22.5574C21.7527 31.4948 21.0091 31.0665 20.6068 30.3712Z" fill="#37DBFF"/>
<path d="M44.6468 6.398L41.6228 13.51C41.5574 13.6873 41.4548 13.8273 41.3148 13.93C41.1841 14.0233 41.0394 14.07 40.8808 14.07C40.6288 14.07 40.4421 14 40.3208 13.86C40.1994 13.72 40.1388 13.5473 40.1388 13.342C40.1388 13.258 40.1528 13.1693 40.1808 13.076L43.6668 4.704C43.7414 4.51733 43.8534 4.37267 44.0028 4.27C44.1614 4.16733 44.3294 4.12533 44.5068 4.144C44.6748 4.144 44.8288 4.19533 44.9688 4.298C45.1181 4.39133 45.2254 4.52667 45.2908 4.704L48.7348 12.908C48.7814 13.0293 48.8048 13.1413 48.8048 13.244C48.8048 13.496 48.7208 13.6967 48.5528 13.846C48.3941 13.9953 48.2168 14.07 48.0208 14.07C47.8528 14.07 47.6988 14.0187 47.5588 13.916C47.4281 13.8133 47.3254 13.6733 47.2508 13.496L44.2408 6.482L44.6468 6.398ZM42.0568 11.802L42.8268 10.192H46.6068L46.8728 11.802H42.0568ZM53.0982 6.37C53.4902 6.37 53.8495 6.43067 54.1762 6.552C54.5029 6.67333 54.7829 6.82733 55.0162 7.014C55.2589 7.20067 55.4455 7.392 55.5762 7.588C55.7162 7.77467 55.7862 7.93333 55.7862 8.064L55.4222 8.246V7.224C55.4222 6.98133 55.5015 6.78067 55.6602 6.622C55.8189 6.454 56.0195 6.37 56.2622 6.37C56.5049 6.37 56.7055 6.44933 56.8642 6.608C57.0229 6.76667 57.1022 6.972 57.1022 7.224V13.454C57.1022 14.266 56.9249 14.9147 56.5702 15.4C56.2249 15.8947 55.7675 16.2493 55.1982 16.464C54.6289 16.688 54.0175 16.8 53.3642 16.8C53.1775 16.8 52.9349 16.7767 52.6362 16.73C52.3375 16.6833 52.0529 16.6273 51.7822 16.562C51.5115 16.4967 51.3062 16.436 51.1662 16.38C50.8862 16.2587 50.6902 16.1047 50.5782 15.918C50.4755 15.7407 50.4569 15.5493 50.5222 15.344C50.6062 15.0733 50.7415 14.8867 50.9282 14.784C51.1149 14.6907 51.3109 14.6813 51.5162 14.756C51.6095 14.784 51.7635 14.84 51.9782 14.924C52.1929 15.008 52.4262 15.0827 52.6782 15.148C52.9395 15.2227 53.1682 15.26 53.3642 15.26C54.0642 15.26 54.5822 15.12 54.9182 14.84C55.2542 14.56 55.4222 14.1727 55.4222 13.678V12.46L55.5902 12.586C55.5902 12.7073 55.5249 12.8567 55.3942 13.034C55.2729 13.202 55.1002 13.37 54.8762 13.538C54.6615 13.706 54.4049 13.8507 54.1062 13.972C53.8075 14.084 53.4902 14.14 53.1542 14.14C52.4915 14.14 51.8942 13.9767 51.3622 13.65C50.8302 13.314 50.4102 12.8567 50.1022 12.278C49.7942 11.69 49.6402 11.018 49.6402 10.262C49.6402 9.49667 49.7942 8.82467 50.1022 8.246C50.4102 7.658 50.8255 7.20067 51.3482 6.874C51.8709 6.538 52.4542 6.37 53.0982 6.37ZM53.3642 7.91C52.9442 7.91 52.5755 8.01267 52.2582 8.218C51.9409 8.42333 51.6935 8.70333 51.5162 9.058C51.3389 9.41267 51.2502 9.814 51.2502 10.262C51.2502 10.7007 51.3389 11.0973 51.5162 11.452C51.6935 11.8067 51.9409 12.0867 52.2582 12.292C52.5755 12.4973 52.9442 12.6 53.3642 12.6C53.7935 12.6 54.1669 12.4973 54.4842 12.292C54.8015 12.0867 55.0489 11.8067 55.2262 11.452C55.4035 11.0973 55.4922 10.7007 55.4922 10.262C55.4922 9.814 55.4035 9.41267 55.2262 9.058C55.0489 8.70333 54.8015 8.42333 54.4842 8.218C54.1669 8.01267 53.7935 7.91 53.3642 7.91ZM62.3125 14.14C61.5191 14.14 60.8285 13.9767 60.2405 13.65C59.6618 13.314 59.2138 12.8613 58.8965 12.292C58.5885 11.7227 58.4345 11.0787 58.4345 10.36C58.4345 9.52 58.6025 8.806 58.9385 8.218C59.2838 7.62067 59.7318 7.16333 60.2825 6.846C60.8331 6.52867 61.4165 6.37 62.0325 6.37C62.5085 6.37 62.9565 6.468 63.3765 6.664C63.8058 6.86 64.1838 7.13067 64.5105 7.476C64.8371 7.812 65.0938 8.204 65.2805 8.652C65.4765 9.1 65.5745 9.576 65.5745 10.08C65.5652 10.304 65.4765 10.486 65.3085 10.626C65.1405 10.766 64.9445 10.836 64.7205 10.836H59.3725L58.9525 9.436H64.0905L63.7825 9.716V9.338C63.7638 9.06733 63.6658 8.82467 63.4885 8.61C63.3205 8.39533 63.1058 8.22733 62.8445 8.106C62.5925 7.97533 62.3218 7.91 62.0325 7.91C61.7525 7.91 61.4912 7.94733 61.2485 8.022C61.0058 8.09667 60.7958 8.22267 60.6185 8.4C60.4411 8.57733 60.3011 8.81533 60.1985 9.114C60.0958 9.41267 60.0445 9.79067 60.0445 10.248C60.0445 10.752 60.1471 11.1813 60.3525 11.536C60.5671 11.8813 60.8378 12.1473 61.1645 12.334C61.5005 12.5113 61.8552 12.6 62.2285 12.6C62.5738 12.6 62.8491 12.572 63.0545 12.516C63.2598 12.46 63.4232 12.3947 63.5445 12.32C63.6752 12.236 63.7918 12.166 63.8945 12.11C64.0625 12.026 64.2211 11.984 64.3705 11.984C64.5758 11.984 64.7438 12.054 64.8745 12.194C65.0145 12.334 65.0845 12.4973 65.0845 12.684C65.0845 12.936 64.9538 13.1647 64.6925 13.37C64.4498 13.5753 64.1092 13.7573 63.6705 13.916C63.2318 14.0653 62.7791 14.14 62.3125 14.14ZM71.1863 6.37C71.877 6.37 72.3996 6.51467 72.7543 6.804C73.1183 7.09333 73.3656 7.48067 73.4963 7.966C73.6363 8.442 73.7063 8.974 73.7063 9.562V13.146C73.7063 13.3887 73.627 13.594 73.4683 13.762C73.3096 13.9207 73.109 14 72.8663 14C72.6236 14 72.423 13.9207 72.2643 13.762C72.1056 13.594 72.0263 13.3887 72.0263 13.146V9.562C72.0263 9.254 71.9843 8.97867 71.9003 8.736C71.8256 8.484 71.6856 8.28333 71.4803 8.134C71.275 7.98467 70.981 7.91 70.5983 7.91C70.225 7.91 69.9076 7.98467 69.6463 8.134C69.3943 8.28333 69.1983 8.484 69.0583 8.736C68.9276 8.97867 68.8623 9.254 68.8623 9.562V13.146C68.8623 13.3887 68.783 13.594 68.6243 13.762C68.4656 13.9207 68.265 14 68.0223 14C67.7796 14 67.579 13.9207 67.4203 13.762C67.2616 13.594 67.1823 13.3887 67.1823 13.146V7.364C67.1823 7.12133 67.2616 6.92067 67.4203 6.762C67.579 6.594 67.7796 6.51 68.0223 6.51C68.265 6.51 68.4656 6.594 68.6243 6.762C68.783 6.92067 68.8623 7.12133 68.8623 7.364V7.966L68.6523 7.924C68.7363 7.76533 68.8576 7.59733 69.0163 7.42C69.175 7.23333 69.3616 7.06067 69.5763 6.902C69.791 6.74333 70.0336 6.61733 70.3043 6.524C70.575 6.42133 70.869 6.37 71.1863 6.37ZM78.9941 6.37C79.5261 6.37 79.9881 6.426 80.3801 6.538C80.7815 6.65 81.0895 6.80867 81.3041 7.014C81.5281 7.21 81.6401 7.448 81.6401 7.728C81.6401 7.91467 81.5841 8.092 81.4721 8.26C81.3601 8.41867 81.1968 8.498 80.9821 8.498C80.8328 8.498 80.7068 8.47933 80.6041 8.442C80.5108 8.39533 80.4268 8.33933 80.3521 8.274C80.2775 8.20867 80.1888 8.148 80.0861 8.092C79.9928 8.036 79.8481 7.994 79.6521 7.966C79.4655 7.92867 79.3255 7.91 79.2321 7.91C78.7561 7.91 78.3501 8.01267 78.0141 8.218C77.6875 8.42333 77.4355 8.70333 77.2581 9.058C77.0808 9.40333 76.9921 9.80467 76.9921 10.262C76.9921 10.71 77.0808 11.1113 77.2581 11.466C77.4448 11.8113 77.6968 12.0867 78.0141 12.292C78.3408 12.4973 78.7141 12.6 79.1341 12.6C79.3675 12.6 79.5681 12.586 79.7361 12.558C79.9041 12.53 80.0441 12.488 80.1561 12.432C80.2868 12.3573 80.4035 12.278 80.5061 12.194C80.6088 12.11 80.7628 12.068 80.9681 12.068C81.2108 12.068 81.3975 12.1473 81.5281 12.306C81.6588 12.4553 81.7241 12.642 81.7241 12.866C81.7241 13.0993 81.5935 13.314 81.3321 13.51C81.0708 13.6967 80.7255 13.8507 80.2961 13.972C79.8761 14.084 79.4188 14.14 78.9241 14.14C78.1868 14.14 77.5475 13.972 77.0061 13.636C76.4648 13.2907 76.0448 12.824 75.7461 12.236C75.4568 11.648 75.3121 10.99 75.3121 10.262C75.3121 9.49667 75.4661 8.82467 75.7741 8.246C76.0915 7.658 76.5255 7.20067 77.0761 6.874C77.6361 6.538 78.2755 6.37 78.9941 6.37ZM88.6336 6.51C88.8762 6.51 89.0769 6.594 89.2356 6.762C89.3942 6.92067 89.4736 7.12133 89.4736 7.364V13.314C89.4736 14.1727 89.3102 14.854 88.9836 15.358C88.6662 15.8713 88.2369 16.24 87.6956 16.464C87.1542 16.688 86.5476 16.8 85.8756 16.8C85.5769 16.8 85.2596 16.7767 84.9236 16.73C84.5876 16.6833 84.3122 16.6133 84.0976 16.52C83.8176 16.3987 83.6216 16.2447 83.5096 16.058C83.4069 15.8807 83.3882 15.6893 83.4536 15.484C83.5376 15.2133 83.6729 15.0267 83.8596 14.924C84.0462 14.8307 84.2422 14.8213 84.4476 14.896C84.5969 14.9427 84.7929 15.0127 85.0356 15.106C85.2782 15.2087 85.5582 15.26 85.8756 15.26C86.3049 15.26 86.6596 15.1993 86.9396 15.078C87.2289 14.966 87.4436 14.77 87.5836 14.49C87.7329 14.2193 87.8076 13.846 87.8076 13.37V12.432L88.1016 12.768C87.9429 13.076 87.7422 13.3327 87.4996 13.538C87.2662 13.734 86.9862 13.8833 86.6596 13.986C86.3329 14.0887 85.9596 14.14 85.5396 14.14C85.0449 14.14 84.6109 14.028 84.2376 13.804C83.8736 13.5707 83.5889 13.2533 83.3836 12.852C83.1782 12.4413 83.0756 11.9747 83.0756 11.452V7.364C83.0756 7.12133 83.1549 6.92067 83.3136 6.762C83.4722 6.594 83.6729 6.51 83.9156 6.51C84.1582 6.51 84.3589 6.594 84.5176 6.762C84.6762 6.92067 84.7556 7.12133 84.7556 7.364V10.948C84.7556 11.5547 84.8862 11.984 85.1476 12.236C85.4182 12.4787 85.7916 12.6 86.2676 12.6C86.5942 12.6 86.8696 12.5393 87.0936 12.418C87.3176 12.2873 87.4902 12.1007 87.6116 11.858C87.7329 11.606 87.7936 11.3027 87.7936 10.948V7.364C87.7936 7.12133 87.8729 6.92067 88.0316 6.762C88.1902 6.594 88.3909 6.51 88.6336 6.51Z" fill="#1D1D1D"/>
<path d="M47.2588 22.224C47.3548 22.288 47.4108 22.372 47.4268 22.476C47.4428 22.572 47.4188 22.668 47.3548 22.764C47.2988 22.836 47.2268 22.876 47.1388 22.884C47.0508 22.892 46.9668 22.876 46.8868 22.836C46.5828 22.636 46.2548 22.48 45.9028 22.368C45.5588 22.256 45.1868 22.2 44.7868 22.2C44.2988 22.2 43.8428 22.288 43.4188 22.464C43.0028 22.632 42.6388 22.88 42.3268 23.208C42.0148 23.528 41.7708 23.908 41.5948 24.348C41.4268 24.788 41.3428 25.272 41.3428 25.8C41.3428 26.344 41.4308 26.84 41.6068 27.288C41.7828 27.728 42.0268 28.108 42.3388 28.428C42.6588 28.748 43.0268 28.992 43.4428 29.16C43.8588 29.328 44.3068 29.412 44.7868 29.412C45.1788 29.412 45.5468 29.356 45.8908 29.244C46.2428 29.132 46.5708 28.98 46.8748 28.788C46.9548 28.74 47.0388 28.724 47.1268 28.74C47.2228 28.748 47.2988 28.792 47.3548 28.872C47.4268 28.96 47.4508 29.056 47.4268 29.16C47.4108 29.256 47.3588 29.332 47.2708 29.388C47.0708 29.516 46.8348 29.636 46.5628 29.748C46.2908 29.86 46.0028 29.948 45.6988 30.012C45.3948 30.084 45.0908 30.12 44.7868 30.12C44.2108 30.12 43.6708 30.016 43.1668 29.808C42.6628 29.6 42.2148 29.308 41.8228 28.932C41.4308 28.548 41.1228 28.092 40.8988 27.564C40.6828 27.036 40.5748 26.448 40.5748 25.8C40.5748 25.176 40.6828 24.604 40.8988 24.084C41.1148 23.556 41.4148 23.1 41.7988 22.716C42.1828 22.332 42.6308 22.032 43.1428 21.816C43.6548 21.6 44.2028 21.492 44.7868 21.492C45.2428 21.492 45.6828 21.556 46.1068 21.684C46.5308 21.812 46.9148 21.992 47.2588 22.224ZM49.1466 30C49.0346 30 48.9466 29.964 48.8826 29.892C48.8186 29.82 48.7866 29.736 48.7866 29.64V24.264C48.7866 24.168 48.8186 24.084 48.8826 24.012C48.9546 23.94 49.0426 23.904 49.1466 23.904C49.2506 23.904 49.3346 23.94 49.3986 24.012C49.4706 24.084 49.5066 24.168 49.5066 24.264V26.064L49.3266 26.1C49.3506 25.82 49.4186 25.544 49.5306 25.272C49.6506 24.992 49.8106 24.736 50.0106 24.504C50.2106 24.272 50.4466 24.084 50.7186 23.94C50.9986 23.796 51.3106 23.724 51.6546 23.724C51.7986 23.724 51.9386 23.756 52.0746 23.82C52.2106 23.876 52.2786 23.972 52.2786 24.108C52.2786 24.228 52.2466 24.32 52.1826 24.384C52.1186 24.448 52.0426 24.48 51.9546 24.48C51.8826 24.48 51.8026 24.46 51.7146 24.42C51.6346 24.38 51.5266 24.36 51.3906 24.36C51.1666 24.36 50.9426 24.428 50.7186 24.564C50.4946 24.692 50.2906 24.868 50.1066 25.092C49.9226 25.316 49.7746 25.568 49.6626 25.848C49.5586 26.12 49.5066 26.396 49.5066 26.676V29.64C49.5066 29.736 49.4706 29.82 49.3986 29.892C49.3266 29.964 49.2426 30 49.1466 30ZM55.9063 30.12C55.2903 30.12 54.7463 29.988 54.2743 29.724C53.8023 29.46 53.4343 29.092 53.1703 28.62C52.9063 28.148 52.7743 27.596 52.7743 26.964C52.7743 26.284 52.9063 25.704 53.1703 25.224C53.4423 24.744 53.7903 24.376 54.2143 24.12C54.6463 23.856 55.1023 23.724 55.5823 23.724C55.9343 23.724 56.2743 23.788 56.6023 23.916C56.9383 24.036 57.2343 24.22 57.4903 24.468C57.7543 24.708 57.9623 25.004 58.1143 25.356C58.2743 25.708 58.3623 26.116 58.3783 26.58C58.3703 26.676 58.3303 26.76 58.2583 26.832C58.1863 26.896 58.1023 26.928 58.0063 26.928H53.1943L53.0503 26.28H57.7783L57.6223 26.424V26.184C57.5903 25.808 57.4703 25.488 57.2623 25.224C57.0543 24.96 56.8023 24.76 56.5063 24.624C56.2103 24.488 55.9023 24.42 55.5823 24.42C55.3423 24.42 55.0943 24.468 54.8383 24.564C54.5903 24.66 54.3623 24.812 54.1543 25.02C53.9543 25.22 53.7903 25.48 53.6623 25.8C53.5343 26.112 53.4703 26.484 53.4703 26.916C53.4703 27.388 53.5663 27.816 53.7583 28.2C53.9503 28.584 54.2263 28.888 54.5863 29.112C54.9543 29.336 55.3903 29.448 55.8943 29.448C56.1743 29.448 56.4263 29.408 56.6503 29.328C56.8743 29.248 57.0703 29.144 57.2383 29.016C57.4063 28.88 57.5463 28.74 57.6583 28.596C57.7463 28.524 57.8343 28.488 57.9223 28.488C58.0023 28.488 58.0703 28.52 58.1263 28.584C58.1903 28.648 58.2223 28.72 58.2223 28.8C58.2223 28.896 58.1823 28.98 58.1023 29.052C57.8623 29.34 57.5503 29.592 57.1663 29.808C56.7823 30.016 56.3623 30.12 55.9063 30.12ZM64.9943 23.868C65.0983 23.868 65.1823 23.904 65.2463 23.976C65.3183 24.048 65.3543 24.136 65.3543 24.24V29.64C65.3543 29.736 65.3183 29.82 65.2463 29.892C65.1743 29.964 65.0903 30 64.9943 30C64.8903 30 64.8023 29.964 64.7303 29.892C64.6663 29.82 64.6343 29.736 64.6343 29.64V28.212L64.8383 28.116C64.8383 28.34 64.7743 28.568 64.6463 28.8C64.5263 29.032 64.3583 29.248 64.1423 29.448C63.9263 29.648 63.6703 29.812 63.3743 29.94C63.0863 30.06 62.7743 30.12 62.4383 30.12C61.8943 30.12 61.4063 29.98 60.9743 29.7C60.5503 29.42 60.2143 29.036 59.9663 28.548C59.7263 28.06 59.6063 27.512 59.6063 26.904C59.6063 26.28 59.7303 25.732 59.9783 25.26C60.2263 24.78 60.5623 24.404 60.9863 24.132C61.4103 23.86 61.8903 23.724 62.4263 23.724C62.7703 23.724 63.0903 23.784 63.3863 23.904C63.6903 24.024 63.9543 24.188 64.1783 24.396C64.4023 24.604 64.5743 24.844 64.6943 25.116C64.8223 25.38 64.8863 25.656 64.8863 25.944L64.6343 25.764V24.24C64.6343 24.136 64.6663 24.048 64.7303 23.976C64.8023 23.904 64.8903 23.868 64.9943 23.868ZM62.4983 29.448C62.9223 29.448 63.2983 29.34 63.6263 29.124C63.9543 28.9 64.2103 28.596 64.3943 28.212C64.5863 27.82 64.6823 27.384 64.6823 26.904C64.6823 26.432 64.5863 26.008 64.3943 25.632C64.2103 25.256 63.9543 24.956 63.6263 24.732C63.2983 24.508 62.9223 24.396 62.4983 24.396C62.0823 24.396 61.7063 24.504 61.3703 24.72C61.0423 24.936 60.7823 25.232 60.5903 25.608C60.4063 25.984 60.3143 26.416 60.3143 26.904C60.3143 27.384 60.4063 27.82 60.5903 28.212C60.7823 28.596 61.0423 28.9 61.3703 29.124C61.6983 29.34 62.0743 29.448 62.4983 29.448ZM66.8477 23.892H69.6437C69.7397 23.892 69.8197 23.928 69.8837 24C69.9477 24.064 69.9797 24.144 69.9797 24.24C69.9797 24.328 69.9477 24.404 69.8837 24.468C69.8197 24.532 69.7397 24.564 69.6437 24.564H66.8477C66.7517 24.564 66.6677 24.532 66.5957 24.468C66.5317 24.396 66.4997 24.316 66.4997 24.228C66.4997 24.132 66.5317 24.052 66.5957 23.988C66.6677 23.924 66.7517 23.892 66.8477 23.892ZM68.0837 22.2C68.1877 22.2 68.2717 22.236 68.3357 22.308C68.4077 22.38 68.4437 22.464 68.4437 22.56V28.584C68.4437 28.808 68.4717 28.976 68.5277 29.088C68.5917 29.2 68.6717 29.276 68.7677 29.316C68.8637 29.348 68.9597 29.364 69.0557 29.364C69.1197 29.364 69.1757 29.356 69.2237 29.34C69.2797 29.316 69.3397 29.304 69.4037 29.304C69.4757 29.304 69.5357 29.332 69.5837 29.388C69.6397 29.444 69.6677 29.516 69.6677 29.604C69.6677 29.716 69.6037 29.812 69.4757 29.892C69.3477 29.964 69.1957 30 69.0197 30C68.9477 30 68.8397 29.996 68.6957 29.988C68.5517 29.972 68.4037 29.928 68.2517 29.856C68.0997 29.776 67.9717 29.64 67.8677 29.448C67.7717 29.256 67.7237 28.98 67.7237 28.62V22.56C67.7237 22.464 67.7557 22.38 67.8197 22.308C67.8917 22.236 67.9797 22.2 68.0837 22.2ZM72.0061 29.64C72.0061 29.736 71.9701 29.82 71.8981 29.892C71.8261 29.964 71.7421 30 71.6461 30C71.5421 30 71.4541 29.964 71.3821 29.892C71.3181 29.82 71.2861 29.736 71.2861 29.64V24.12C71.2861 24.024 71.3181 23.94 71.3821 23.868C71.4541 23.796 71.5421 23.76 71.6461 23.76C71.7501 23.76 71.8341 23.796 71.8981 23.868C71.9701 23.94 72.0061 24.024 72.0061 24.12V29.64ZM71.6461 22.956C71.4781 22.956 71.3501 22.92 71.2621 22.848C71.1821 22.768 71.1421 22.656 71.1421 22.512V22.392C71.1421 22.248 71.1861 22.14 71.2741 22.068C71.3701 21.988 71.4981 21.948 71.6581 21.948C71.8101 21.948 71.9261 21.988 72.0061 22.068C72.0941 22.14 72.1381 22.248 72.1381 22.392V22.512C72.1381 22.656 72.0941 22.768 72.0061 22.848C71.9261 22.92 71.8061 22.956 71.6461 22.956ZM73.7325 23.736C73.7965 23.736 73.8605 23.756 73.9245 23.796C73.9885 23.836 74.0365 23.896 74.0685 23.976L76.1685 28.968L76.0125 29.064L78.1605 23.976C78.2245 23.816 78.3405 23.74 78.5085 23.748C78.5885 23.748 78.6645 23.776 78.7365 23.832C78.8085 23.88 78.8445 23.952 78.8445 24.048C78.8445 24.096 78.8365 24.136 78.8205 24.168C78.8125 24.192 78.8045 24.22 78.7965 24.252L76.4445 29.772C76.3805 29.916 76.2725 29.992 76.1205 30C76.0485 30.008 75.9765 29.992 75.9045 29.952C75.8405 29.904 75.7925 29.844 75.7605 29.772L73.3965 24.252C73.3885 24.236 73.3805 24.212 73.3725 24.18C73.3645 24.148 73.3605 24.116 73.3605 24.084C73.3605 23.996 73.3925 23.916 73.4565 23.844C73.5205 23.772 73.6125 23.736 73.7325 23.736ZM82.9414 30.12C82.3254 30.12 81.7814 29.988 81.3094 29.724C80.8374 29.46 80.4694 29.092 80.2054 28.62C79.9414 28.148 79.8094 27.596 79.8094 26.964C79.8094 26.284 79.9414 25.704 80.2054 25.224C80.4774 24.744 80.8254 24.376 81.2494 24.12C81.6814 23.856 82.1374 23.724 82.6174 23.724C82.9694 23.724 83.3094 23.788 83.6374 23.916C83.9734 24.036 84.2694 24.22 84.5254 24.468C84.7894 24.708 84.9974 25.004 85.1494 25.356C85.3094 25.708 85.3974 26.116 85.4134 26.58C85.4054 26.676 85.3654 26.76 85.2934 26.832C85.2214 26.896 85.1374 26.928 85.0414 26.928H80.2294L80.0854 26.28H84.8134L84.6574 26.424V26.184C84.6254 25.808 84.5054 25.488 84.2974 25.224C84.0894 24.96 83.8374 24.76 83.5414 24.624C83.2454 24.488 82.9374 24.42 82.6174 24.42C82.3774 24.42 82.1294 24.468 81.8734 24.564C81.6254 24.66 81.3974 24.812 81.1894 25.02C80.9894 25.22 80.8254 25.48 80.6974 25.8C80.5694 26.112 80.5054 26.484 80.5054 26.916C80.5054 27.388 80.6014 27.816 80.7934 28.2C80.9854 28.584 81.2614 28.888 81.6214 29.112C81.9894 29.336 82.4254 29.448 82.9294 29.448C83.2094 29.448 83.4614 29.408 83.6854 29.328C83.9094 29.248 84.1054 29.144 84.2734 29.016C84.4414 28.88 84.5814 28.74 84.6934 28.596C84.7814 28.524 84.8694 28.488 84.9574 28.488C85.0374 28.488 85.1054 28.52 85.1614 28.584C85.2254 28.648 85.2574 28.72 85.2574 28.8C85.2574 28.896 85.2174 28.98 85.1374 29.052C84.8974 29.34 84.5854 29.592 84.2014 29.808C83.8174 30.016 83.3974 30.12 82.9414 30.12Z" fill="#1D1D1D"/>
</svg>
